<svg width="32" height="32" viewBox="0 0 32 32" fill="none" xmlns="http://www.w3.org/2000/svg">
<path d="M6.01255 13.9126C6.32445 11.7293 6.48039 10.6377 7.2323 9.98562C7.98421 9.3335 9.0869 9.3335 11.2923 9.3335H12H20H20.7078C22.9132 9.3335 24.0159 9.3335 24.7678 9.98562C25.5196 10.6377 25.6756 11.7293 25.9875 13.9126L27.1304 21.9126C27.535 24.745 27.7374 26.1612 26.9399 27.0807C26.1424 28.0002 24.7119 28.0002 21.8507 28.0002H21.3334H10.6667H10.1494C7.28823 28.0002 5.85765 28.0002 5.06019 27.0807C4.26275 26.1612 4.46507 24.745 4.8697 21.9126L6.01255 13.9126Z" stroke="white" stroke-width="2" stroke-linejoin="round"/>
<path d="M12 14.6667V6.66667C12 5.19391 13.1939 4 14.6667 4H17.3333C18.8061 4 20 5.19391 20 6.66667V14.6667" stroke="white" stroke-width="2" stroke-linecap="round" stroke-linejoin="round"/>
</svg>
