<svg width="117" height="108" viewBox="0 0 117 108" fill="none" xmlns="http://www.w3.org/2000/svg">
<path d="M39.0141 79.8333C43.268 79.8333 46.7164 76.4008 46.7164 72.1667C46.7164 67.9325 43.268 64.5 39.0141 64.5C34.7602 64.5 31.3118 67.9325 31.3118 72.1667C31.3118 76.4008 34.7602 79.8333 39.0141 79.8333Z" stroke="black" stroke-width="2" stroke-linecap="round" stroke-linejoin="round"/>
<path d="M77.5256 79.8333C81.7794 79.8333 85.2279 76.4008 85.2279 72.1667C85.2279 67.9325 81.7794 64.5 77.5256 64.5C73.2717 64.5 69.8232 67.9325 69.8232 72.1667C69.8232 76.4008 73.2717 79.8333 77.5256 79.8333Z" stroke="black" stroke-width="2" stroke-linecap="round" stroke-linejoin="round"/>
<path d="M31.3117 72.1665H23.6094V29.9998C23.6094 28.9832 24.0151 28.0082 24.7374 27.2893C25.4596 26.5704 26.4391 26.1665 27.4605 26.1665H62.121V72.1665M46.7164 72.1665H69.8233M85.228 72.1665H92.9303V49.1665H62.121M62.121 29.9998H81.3768L92.9303 49.1665" stroke="black" stroke-width="2" stroke-linecap="round" stroke-linejoin="round"/>
<path d="M115.54 54C115.54 83.2008 89.972 107 58.2698 107C26.5675 107 1 83.2008 1 54C1 24.7992 26.5675 1 58.2698 1C89.972 1 115.54 24.7992 115.54 54Z" stroke="black" stroke-width="2"/>
</svg>
