<svg width="117" height="108" viewBox="0 0 117 108" fill="none" xmlns="http://www.w3.org/2000/svg">
<path d="M36.3849 27.0112H82.2242L93.684 46.0225L61.2145 82.144C60.9655 82.3969 60.6684 82.5978 60.3404 82.735C60.0124 82.8722 59.6603 82.9428 59.3045 82.9428C58.9488 82.9428 58.5966 82.8722 58.2687 82.735C57.9407 82.5978 57.6435 82.3969 57.3946 82.144L24.925 46.0225L36.3849 27.0112Z" stroke="black" stroke-width="2" stroke-linecap="round" stroke-linejoin="round"/>
<path d="M51.6648 53.6272L44.0249 45.2622L46.3169 41.46" stroke="black" stroke-width="2" stroke-linecap="round" stroke-linejoin="round"/>
<path d="M115.944 54C115.944 83.2008 90.3768 107 58.6746 107C26.9723 107 1.40479 83.2008 1.40479 54C1.40479 24.7992 26.9723 1 58.6746 1C90.3768 1 115.944 24.7992 115.944 54Z" stroke="black" stroke-width="2"/>
</svg>
