<svg width="300" height="72" viewBox="0 0 300 72" fill="none" xmlns="http://www.w3.org/2000/svg">
<path d="M36 0C16.1177 0 0 16.1177 0 36C19.8823 36 36 19.8823 36 0Z" fill="#806035"/>
<path d="M36 72C55.8823 72 72 55.8823 72 36C52.1177 36 36 52.1177 36 72Z" fill="#806035"/>
<path d="M71.4965 35.4965C52.2901 35.2295 36.7705 19.7099 36.5035 0.503498C55.7099 0.7705 71.2295 16.29 71.4965 35.4965Z" fill="white" stroke="white"/>
<path d="M0.503498 36.5035C19.7099 36.7705 35.2295 52.2901 35.4965 71.4965C16.29 71.2295 0.770499 55.7099 0.503498 36.5035Z" fill="white" stroke="white"/>
<path d="M98.2727 35H91.8651V16.0909H98.402C100.279 16.0909 101.892 16.4695 103.24 17.2266C104.594 17.9775 105.634 19.0578 106.361 20.4673C107.087 21.8769 107.45 23.5634 107.45 25.527C107.45 27.4967 107.084 29.1894 106.352 30.6051C105.625 32.0208 104.576 33.1072 103.203 33.8643C101.837 34.6214 100.193 35 98.2727 35ZM95.2905 32.0362H98.1065C99.4238 32.0362 100.522 31.7962 101.403 31.3161C102.283 30.8298 102.945 30.1065 103.388 29.1463C103.831 28.1799 104.053 26.9735 104.053 25.527C104.053 24.0805 103.831 22.8802 103.388 21.9261C102.945 20.9659 102.289 20.2488 101.421 19.7749C100.559 19.2947 99.4884 19.0547 98.2081 19.0547H95.2905V32.0362ZM110.705 35V16.0909H117.796C119.248 16.0909 120.467 16.3433 121.452 16.848C122.443 17.3527 123.191 18.0606 123.696 18.9716C124.207 19.8764 124.462 20.9321 124.462 22.1385C124.462 23.3511 124.203 24.4036 123.686 25.2962C123.176 26.1825 122.422 26.8688 121.424 27.3551C120.427 27.8352 119.202 28.0753 117.75 28.0753H112.699V25.2315H117.288C118.137 25.2315 118.833 25.1146 119.375 24.8807C119.916 24.6406 120.316 24.2928 120.575 23.8374C120.84 23.3757 120.972 22.8094 120.972 22.1385C120.972 21.4676 120.84 20.8951 120.575 20.4212C120.31 19.9411 119.907 19.5779 119.365 19.3317C118.824 19.0793 118.125 18.9531 117.27 18.9531H114.13V35H110.705ZM120.473 26.4318L125.154 35H121.332L116.734 26.4318H120.473ZM127.615 35V16.0909H139.913V18.9624H131.04V24.0959H139.276V26.9673H131.04V32.1286H139.987V35H127.615ZM145.836 35H142.18L148.837 16.0909H153.066L159.732 35H156.076L151.025 19.9688H150.877L145.836 35ZM145.956 27.5859H155.928V30.3374H145.956V27.5859ZM162.222 16.0909H166.414L172.028 29.7926H172.249L177.863 16.0909H182.055V35H178.768V22.0092H178.593L173.367 34.9446H170.911L165.685 21.9815H165.509V35H162.222V16.0909ZM202.51 21.2891C202.424 20.4827 202.061 19.8549 201.421 19.4055C200.787 18.9562 199.962 18.7315 198.947 18.7315C198.233 18.7315 197.62 18.8393 197.109 19.0547C196.598 19.2701 196.207 19.5625 195.937 19.9318C195.666 20.3011 195.527 20.7228 195.521 21.1967C195.521 21.5907 195.61 21.9323 195.789 22.2216C195.974 22.5109 196.223 22.7571 196.537 22.9602C196.851 23.1572 197.198 23.3234 197.58 23.4588C197.962 23.5942 198.346 23.7081 198.734 23.8004L200.507 24.2436C201.221 24.4098 201.907 24.6345 202.566 24.9176C203.231 25.2008 203.825 25.5578 204.348 25.9886C204.877 26.4195 205.296 26.9396 205.604 27.549C205.911 28.1584 206.065 28.8724 206.065 29.6911C206.065 30.799 205.782 31.7746 205.216 32.6179C204.649 33.455 203.831 34.1106 202.76 34.5845C201.695 35.0523 200.405 35.2862 198.891 35.2862C197.42 35.2862 196.143 35.0585 195.059 34.603C193.982 34.1475 193.139 33.4827 192.53 32.6087C191.926 31.7346 191.6 30.6697 191.551 29.4141H194.921C194.97 30.0727 195.173 30.6205 195.53 31.0575C195.887 31.4946 196.352 31.8208 196.925 32.0362C197.503 32.2517 198.149 32.3594 198.863 32.3594C199.608 32.3594 200.261 32.2486 200.821 32.027C201.387 31.7992 201.83 31.4853 202.15 31.0852C202.47 30.679 202.634 30.205 202.64 29.6634C202.634 29.1709 202.489 28.7647 202.206 28.4446C201.923 28.1184 201.526 27.8475 201.015 27.6321C200.51 27.4105 199.919 27.2135 199.242 27.0412L197.091 26.4872C195.533 26.0871 194.302 25.4808 193.398 24.6683C192.499 23.8497 192.05 22.7633 192.05 21.4091C192.05 20.295 192.351 19.3194 192.954 18.4822C193.564 17.6451 194.392 16.9957 195.438 16.5341C196.484 16.0663 197.669 15.8324 198.993 15.8324C200.335 15.8324 201.51 16.0663 202.52 16.5341C203.535 16.9957 204.332 17.639 204.911 18.4638C205.49 19.2824 205.788 20.2242 205.807 21.2891H202.51ZM208.288 18.9624V16.0909H223.375V18.9624H217.53V35H214.132V18.9624H208.288ZM238.203 16.0909H241.628V28.4446C241.628 29.7988 241.308 30.9898 240.668 32.0178C240.034 33.0457 239.141 33.849 237.99 34.4276C236.839 35 235.494 35.2862 233.956 35.2862C232.411 35.2862 231.063 35 229.912 34.4276C228.761 33.849 227.868 33.0457 227.234 32.0178C226.6 30.9898 226.283 29.7988 226.283 28.4446V16.0909H229.708V28.1584C229.708 28.9463 229.881 29.648 230.225 30.2635C230.576 30.879 231.069 31.3622 231.703 31.7131C232.337 32.0578 233.088 32.2301 233.956 32.2301C234.824 32.2301 235.574 32.0578 236.208 31.7131C236.849 31.3622 237.341 30.879 237.686 30.2635C238.03 29.648 238.203 28.9463 238.203 28.1584V16.0909ZM251.759 35H245.351V16.0909H251.888C253.766 16.0909 255.378 16.4695 256.726 17.2266C258.081 17.9775 259.121 19.0578 259.847 20.4673C260.573 21.8769 260.937 23.5634 260.937 25.527C260.937 27.4967 260.57 29.1894 259.838 30.6051C259.112 32.0208 258.062 33.1072 256.689 33.8643C255.323 34.6214 253.68 35 251.759 35ZM248.777 32.0362H251.593C252.91 32.0362 254.009 31.7962 254.889 31.3161C255.769 30.8298 256.431 30.1065 256.874 29.1463C257.317 28.1799 257.539 26.9735 257.539 25.527C257.539 24.0805 257.317 22.8802 256.874 21.9261C256.431 20.9659 255.775 20.2488 254.907 19.7749C254.046 19.2947 252.975 19.0547 251.694 19.0547H248.777V32.0362ZM267.617 16.0909V35H264.191V16.0909H267.617ZM288.222 25.5455C288.222 27.5829 287.841 29.3279 287.077 30.7805C286.32 32.227 285.286 33.335 283.975 34.1044C282.67 34.8738 281.19 35.2585 279.534 35.2585C277.878 35.2585 276.395 34.8738 275.084 34.1044C273.779 33.3288 272.745 32.2178 271.982 30.7713C271.224 29.3187 270.846 27.5767 270.846 25.5455C270.846 23.508 271.224 21.7661 271.982 20.3196C272.745 18.867 273.779 17.7559 275.084 16.9865C276.395 16.2171 277.878 15.8324 279.534 15.8324C281.19 15.8324 282.67 16.2171 283.975 16.9865C285.286 17.7559 286.32 18.867 287.077 20.3196C287.841 21.7661 288.222 23.508 288.222 25.5455ZM284.778 25.5455C284.778 24.1113 284.554 22.9018 284.104 21.9169C283.661 20.9259 283.046 20.178 282.258 19.6733C281.47 19.1624 280.562 18.907 279.534 18.907C278.506 18.907 277.598 19.1624 276.81 19.6733C276.022 20.178 275.404 20.9259 274.955 21.9169C274.511 22.9018 274.29 24.1113 274.29 25.5455C274.29 26.9796 274.511 28.1922 274.955 29.1832C275.404 30.1681 276.022 30.916 276.81 31.4268C277.598 31.9316 278.506 32.1839 279.534 32.1839C280.562 32.1839 281.47 31.9316 282.258 31.4268C283.046 30.916 283.661 30.1681 284.104 29.1832C284.554 28.1922 284.778 26.9796 284.778 25.5455Z" fill="white"/>
<g filter="url(#filter0_d_604_564)">
<line x1="90.9988" y1="45.0098" x2="286.001" y2="45.0098" stroke="white"/>
</g>
<defs>
<filter id="filter0_d_604_564" x="86.9988" y="44.5098" width="203.003" height="9" filterUnits="userSpaceOnUse" color-interpolation-filters="sRGB">
<feFlood flood-opacity="0" result="BackgroundImageFix"/>
<feColorMatrix in="SourceAlpha" type="matrix" values="0 0 0 0 0 0 0 0 0 0 0 0 0 0 0 0 0 0 127 0" result="hardAlpha"/>
<feOffset dy="4"/>
<feGaussianBlur stdDeviation="2"/>
<feComposite in2="hardAlpha" operator="out"/>
<feColorMatrix type="matrix" values="0 0 0 0 0 0 0 0 0 0 0 0 0 0 0 0 0 0 0.25 0"/>
<feBlend mode="normal" in2="BackgroundImageFix" result="effect1_dropShadow_604_564"/>
<feBlend mode="normal" in="SourceGraphic" in2="effect1_dropShadow_604_564" result="shape"/>
</filter>
</defs>
</svg>
