<svg width="110" height="32" viewBox="0 0 110 32" fill="none" xmlns="http://www.w3.org/2000/svg">
<path d="M22.6667 22.6665L28.0001 27.9998" stroke="white" stroke-width="2" stroke-linecap="round" stroke-linejoin="round"/>
<path d="M25.3333 14.6667C25.3333 20.5577 20.5577 25.3333 14.6667 25.3333C8.77563 25.3333 4 20.5577 4 14.6667C4 8.77563 8.77563 4 14.6667 4C20.5577 4 25.3333 8.77563 25.3333 14.6667Z" stroke="white" stroke-width="2"/>
<path d="M47.1087 9.27273C47.0405 8.69697 46.764 8.25 46.2791 7.93182C45.7943 7.61364 45.1996 7.45455 44.495 7.45455C43.9799 7.45455 43.5291 7.53788 43.1428 7.70455C42.7602 7.87121 42.4609 8.10038 42.245 8.39205C42.0329 8.68371 41.9268 9.01515 41.9268 9.38636C41.9268 9.69697 42.0007 9.96401 42.1484 10.1875C42.3 10.4072 42.4931 10.5909 42.728 10.7386C42.9628 10.8826 43.209 11.0019 43.4666 11.0966C43.7242 11.1875 43.9609 11.2614 44.1768 11.3182L45.3587 11.6364C45.6617 11.7159 45.9988 11.8258 46.37 11.9659C46.745 12.1061 47.103 12.2973 47.4439 12.5398C47.7886 12.7784 48.0727 13.0852 48.2962 13.4602C48.5197 13.8352 48.6314 14.2955 48.6314 14.8409C48.6314 15.4697 48.4666 16.0379 48.1371 16.5455C47.8113 17.053 47.334 17.4564 46.7053 17.7557C46.0803 18.0549 45.3208 18.2045 44.4268 18.2045C43.5935 18.2045 42.8719 18.0701 42.2621 17.8011C41.656 17.5322 41.1787 17.1572 40.8303 16.6761C40.4856 16.1951 40.2905 15.6364 40.245 15H41.6996C41.7375 15.4394 41.8852 15.803 42.1428 16.0909C42.4041 16.375 42.7337 16.5871 43.1314 16.7273C43.5329 16.8636 43.9647 16.9318 44.4268 16.9318C44.9647 16.9318 45.4477 16.8447 45.8757 16.6705C46.3037 16.4924 46.6428 16.2462 46.8928 15.9318C47.1428 15.6136 47.2678 15.2424 47.2678 14.8182C47.2678 14.4318 47.1598 14.1174 46.9439 13.875C46.728 13.6326 46.4439 13.4356 46.0916 13.2841C45.7393 13.1326 45.3587 13 44.9496 12.8864L43.5178 12.4773C42.6087 12.2159 41.889 11.8428 41.3587 11.358C40.8284 10.8731 40.5632 10.2386 40.5632 9.45455C40.5632 8.80303 40.7393 8.23485 41.0916 7.75C41.4477 7.26136 41.925 6.88258 42.5234 6.61364C43.1257 6.34091 43.7981 6.20455 44.5405 6.20455C45.2905 6.20455 45.9571 6.33901 46.5405 6.60795C47.1238 6.87311 47.5859 7.23674 47.9268 7.69886C48.2715 8.16098 48.4534 8.68561 48.4723 9.27273H47.1087ZM54.4254 18.1818C53.5845 18.1818 52.8591 17.9962 52.2493 17.625C51.6432 17.25 51.1754 16.7273 50.8459 16.0568C50.5201 15.3826 50.3572 14.5985 50.3572 13.7045C50.3572 12.8106 50.5201 12.0227 50.8459 11.3409C51.1754 10.6553 51.6338 10.1212 52.2209 9.73864C52.8118 9.35227 53.5012 9.15909 54.2891 9.15909C54.7436 9.15909 55.1925 9.23485 55.6357 9.38636C56.0788 9.53788 56.4822 9.78409 56.8459 10.125C57.2095 10.4621 57.4993 10.9091 57.7152 11.4659C57.9311 12.0227 58.0391 12.7083 58.0391 13.5227V14.0909H51.3118V12.9318H56.6754C56.6754 12.4394 56.5769 12 56.38 11.6136C56.1868 11.2273 55.9103 10.9223 55.5504 10.6989C55.1944 10.4754 54.7739 10.3636 54.2891 10.3636C53.755 10.3636 53.2929 10.4962 52.9027 10.7614C52.5163 11.0227 52.219 11.3636 52.0107 11.7841C51.8023 12.2045 51.6982 12.6553 51.6982 13.1364V13.9091C51.6982 14.5682 51.8118 15.1269 52.0391 15.5852C52.2701 16.0398 52.5902 16.3864 52.9993 16.625C53.4084 16.8598 53.8838 16.9773 54.4254 16.9773C54.7777 16.9773 55.0959 16.928 55.38 16.8295C55.6679 16.7273 55.916 16.5758 56.1243 16.375C56.3326 16.1705 56.4936 15.9167 56.6072 15.6136L57.9027 15.9773C57.7663 16.4167 57.5372 16.803 57.2152 17.1364C56.8932 17.4659 56.4955 17.7235 56.022 17.9091C55.5485 18.0909 55.0163 18.1818 54.4254 18.1818ZM62.647 18.2045C62.094 18.2045 61.5921 18.1004 61.1413 17.892C60.6906 17.6799 60.3326 17.375 60.0675 16.9773C59.8023 16.5758 59.6697 16.0909 59.6697 15.5227C59.6697 15.0227 59.7682 14.6174 59.9652 14.3068C60.1622 13.9924 60.4254 13.7462 60.755 13.5682C61.0845 13.3902 61.4482 13.2576 61.8459 13.1705C62.2474 13.0795 62.6508 13.0076 63.0561 12.9545C63.5864 12.8864 64.0163 12.8352 64.3459 12.8011C64.6792 12.7633 64.9216 12.7008 65.0732 12.6136C65.2285 12.5265 65.3061 12.375 65.3061 12.1591V12.1136C65.3061 11.553 65.1527 11.1174 64.8459 10.8068C64.5429 10.4962 64.0826 10.3409 63.4652 10.3409C62.825 10.3409 62.3232 10.4811 61.9595 10.7614C61.5959 11.0417 61.3402 11.3409 61.1925 11.6591L59.9197 11.2045C60.147 10.6742 60.45 10.2614 60.8288 9.96591C61.2114 9.66667 61.6281 9.45833 62.0788 9.34091C62.5334 9.2197 62.9804 9.15909 63.4197 9.15909C63.7 9.15909 64.022 9.19318 64.3857 9.26136C64.7531 9.32576 65.1072 9.46023 65.4482 9.66477C65.7929 9.86932 66.0788 10.178 66.3061 10.5909C66.5334 11.0038 66.647 11.5568 66.647 12.25V18H65.3061V16.8182H65.2379C65.147 17.0076 64.9955 17.2102 64.7834 17.4261C64.5713 17.642 64.2891 17.8258 63.9368 17.9773C63.5845 18.1288 63.1546 18.2045 62.647 18.2045ZM62.8516 17C63.3819 17 63.8288 16.8958 64.1925 16.6875C64.5599 16.4792 64.8364 16.2102 65.022 15.8807C65.2114 15.5511 65.3061 15.2045 65.3061 14.8409V13.6136C65.2493 13.6818 65.1243 13.7443 64.9311 13.8011C64.7417 13.8542 64.522 13.9015 64.272 13.9432C64.0258 13.9811 63.7853 14.0152 63.5504 14.0455C63.3194 14.072 63.1319 14.0947 62.9879 14.1136C62.6394 14.1591 62.3137 14.233 62.0107 14.3352C61.7114 14.4337 61.469 14.5833 61.2834 14.7841C61.1016 14.9811 61.0107 15.25 61.0107 15.5909C61.0107 16.0568 61.183 16.4091 61.5277 16.6477C61.8762 16.8826 62.3175 17 62.8516 17ZM69.0945 18V9.27273H70.3899V10.5909H70.4808C70.6399 10.1591 70.9278 9.80871 71.3445 9.53977C71.7611 9.27083 72.2308 9.13636 72.7536 9.13636C72.852 9.13636 72.9751 9.13826 73.1229 9.14205C73.2706 9.14583 73.3823 9.15152 73.4581 9.15909V10.5227C73.4126 10.5114 73.3085 10.4943 73.1456 10.4716C72.9865 10.4451 72.8179 10.4318 72.6399 10.4318C72.2157 10.4318 71.8369 10.5208 71.5036 10.6989C71.174 10.8731 70.9126 11.1155 70.7195 11.4261C70.5301 11.733 70.4354 12.0833 70.4354 12.4773V18H69.0945ZM78.3274 18.1818C77.5092 18.1818 76.8047 17.9886 76.2138 17.6023C75.6229 17.2159 75.1683 16.6837 74.8501 16.0057C74.532 15.3277 74.3729 14.553 74.3729 13.6818C74.3729 12.7955 74.5357 12.0133 74.8615 11.3352C75.1911 10.6534 75.6494 10.1212 76.2365 9.73864C76.8274 9.35227 77.5168 9.15909 78.3047 9.15909C78.9183 9.15909 79.4714 9.27273 79.9638 9.5C80.4562 9.72727 80.8596 10.0455 81.174 10.4545C81.4884 10.8636 81.6835 11.3409 81.7592 11.8864H80.4183C80.3161 11.4886 80.0888 11.1364 79.7365 10.8295C79.388 10.5189 78.9183 10.3636 78.3274 10.3636C77.8047 10.3636 77.3464 10.5 76.9524 10.7727C76.5623 11.0417 76.2573 11.4223 76.0376 11.9148C75.8217 12.4034 75.7138 12.9773 75.7138 13.6364C75.7138 14.3106 75.8198 14.8977 76.032 15.3977C76.2479 15.8977 76.5509 16.286 76.9411 16.5625C77.335 16.839 77.7971 16.9773 78.3274 16.9773C78.6759 16.9773 78.9922 16.9167 79.2763 16.7955C79.5604 16.6742 79.8009 16.5 79.9979 16.2727C80.1948 16.0455 80.335 15.7727 80.4183 15.4545H81.7592C81.6835 15.9697 81.496 16.4337 81.1967 16.8466C80.9013 17.2557 80.5092 17.5814 80.0206 17.8239C79.5357 18.0625 78.9714 18.1818 78.3274 18.1818ZM85.0604 12.75V18H83.7195V6.36364H85.0604V10.6364H85.174C85.3786 10.1856 85.6854 9.82765 86.0945 9.5625C86.5073 9.29356 87.0566 9.15909 87.7422 9.15909C88.3369 9.15909 88.8577 9.27841 89.3047 9.51705C89.7517 9.75189 90.0982 10.1136 90.3445 10.6023C90.5945 11.0871 90.7195 11.7045 90.7195 12.4545V18H89.3786V12.5455C89.3786 11.8523 89.1986 11.3163 88.8388 10.9375C88.4827 10.5549 87.9884 10.3636 87.3558 10.3636C86.9164 10.3636 86.5225 10.4564 86.174 10.642C85.8293 10.8277 85.5566 11.0985 85.3558 11.4545C85.1589 11.8106 85.0604 12.2424 85.0604 12.75ZM98.6499 18.0909C98.3696 18.0909 98.129 17.9905 97.9283 17.7898C97.7275 17.589 97.6271 17.3485 97.6271 17.0682C97.6271 16.7879 97.7275 16.5473 97.9283 16.3466C98.129 16.1458 98.3696 16.0455 98.6499 16.0455C98.9302 16.0455 99.1707 16.1458 99.3714 16.3466C99.5722 16.5473 99.6726 16.7879 99.6726 17.0682C99.6726 17.2538 99.6252 17.4242 99.5305 17.5795C99.4396 17.7348 99.3165 17.8598 99.1612 17.9545C99.0097 18.0455 98.8393 18.0909 98.6499 18.0909ZM103.056 18.0909C102.776 18.0909 102.535 17.9905 102.335 17.7898C102.134 17.589 102.033 17.3485 102.033 17.0682C102.033 16.7879 102.134 16.5473 102.335 16.3466C102.535 16.1458 102.776 16.0455 103.056 16.0455C103.336 16.0455 103.577 16.1458 103.778 16.3466C103.978 16.5473 104.079 16.7879 104.079 17.0682C104.079 17.2538 104.031 17.4242 103.937 17.5795C103.846 17.7348 103.723 17.8598 103.567 17.9545C103.416 18.0455 103.246 18.0909 103.056 18.0909ZM107.462 18.0909C107.182 18.0909 106.942 17.9905 106.741 17.7898C106.54 17.589 106.44 17.3485 106.44 17.0682C106.44 16.7879 106.54 16.5473 106.741 16.3466C106.942 16.1458 107.182 16.0455 107.462 16.0455C107.743 16.0455 107.983 16.1458 108.184 16.3466C108.385 16.5473 108.485 16.7879 108.485 17.0682C108.485 17.2538 108.438 17.4242 108.343 17.5795C108.252 17.7348 108.129 17.8598 107.974 17.9545C107.822 18.0455 107.652 18.0909 107.462 18.0909Z" fill="white"/>
</svg>
